<svg width="16" height="16" viewBox="0 0 16 16" fill="none" xmlns="http://www.w3.org/2000/svg">
<path d="M4 2V4H2V2H4ZM5 1.5C5 1.22386 4.77614 1 4.5 1H1.5C1.22386 1 1 1.22386 1 1.5V4.5C1 4.77614 1.22386 5 1.5 5H4.5C4.77614 5 5 4.77614 5 4.5V1.5ZM9 2V4H7V2H9ZM10 1.5C10 1.22386 9.77614 1 9.5 1H6.5C6.22386 1 6 1.22386 6 1.5V4.5C6 4.77614 6.22386 5 6.5 5H9.5C9.77614 5 10 4.77614 10 4.5V1.5ZM14 2V4H12V2H14ZM15 1.5C15 1.22386 14.7761 1 14.5 1H11.5C11.2239 1 11 1.22386 11 1.5V4.5C11 4.77614 11.2239 5 11.5 5H14.5C14.7761 5 15 4.77614 15 4.5V1.5ZM4 7V9H2V7H4ZM5 6.5C5 6.22386 4.77614 6 4.5 6H1.5C1.22386 6 1 6.22386 1 6.5V9.5C1 9.77614 1.22386 10 1.5 10H4.5C4.77614 10 5 9.77614 5 9.5V6.5ZM9 7V9H7V7H9ZM10 6.5C10 6.22386 9.77614 6 9.5 6H6.5C6.22386 6 6 6.22386 6 6.5V9.5C6 9.77614 6.22386 10 6.5 10H9.5C9.77614 10 10 9.77614 10 9.5V6.5ZM14 7V9H12V7H14ZM15 6.5C15 6.22386 14.7761 6 14.5 6H11.5C11.2239 6 11 6.22386 11 6.5V9.5C11 9.77614 11.2239 10 11.5 10H14.5C14.7761 10 15 9.77614 15 9.5V6.5ZM4 12V14H2V12H4ZM5 11.5C5 11.2239 4.77614 11 4.5 11H1.5C1.22386 11 1 11.2239 1 11.5V14.5C1 14.7761 1.22386 15 1.5 15H4.5C4.77614 15 5 14.7761 5 14.5V11.5ZM9 12V14H7V12H9ZM10 11.5C10 11.2239 9.77614 11 9.5 11H6.5C6.22386 11 6 11.2239 6 11.5V14.5C6 14.7761 6.22386 15 6.5 15H9.5C9.77614 15 10 14.7761 10 14.5V11.5ZM14 12V14H12V12H14ZM15 11.5C15 11.2239 14.7761 11 14.5 11H11.5C11.2239 11 11 11.2239 11 11.5V14.5C11 14.7761 11.2239 15 11.5 15H14.5C14.7761 15 15 14.7761 15 14.5V11.5Z" fill="#252525"/>
</svg>
