<svg width="16" height="16" viewBox="0 0 16 16" fill="none" xmlns="http://www.w3.org/2000/svg">
<path d="M4.99857 7.00291C5.55065 7.00291 5.9982 6.55537 5.9982 6.00329C5.9982 5.45121 5.55065 5.00366 4.99857 5.00366C4.4465 5.00366 3.99895 5.45121 3.99895 6.00329C3.99895 6.55537 4.4465 7.00291 4.99857 7.00291Z" fill="#252525"/>
<path d="M7.99746 5.50347C8.54954 5.50347 8.99709 5.05592 8.99709 4.50384C8.99709 3.95177 8.54954 3.50422 7.99746 3.50422C7.44538 3.50422 6.99783 3.95177 6.99783 4.50384C6.99783 5.05592 7.44538 5.50347 7.99746 5.50347Z" fill="#252525"/>
<path d="M10.9963 7.00291C11.5484 7.00291 11.996 6.55537 11.996 6.00329C11.996 5.45121 11.5484 5.00366 10.9963 5.00366C10.4443 5.00366 9.99671 5.45121 9.99671 6.00329C9.99671 6.55537 10.4443 7.00291 10.9963 7.00291Z" fill="#252525"/>
<path d="M11.4962 10.0018C12.0482 10.0018 12.4958 9.55425 12.4958 9.00217C12.4958 8.45009 12.0482 8.00254 11.4962 8.00254C10.9441 8.00254 10.4965 8.45009 10.4965 9.00217C10.4965 9.55425 10.9441 10.0018 11.4962 10.0018Z" fill="#252525"/>
<path d="M9.4969 12.5009C10.049 12.5009 10.4965 12.0533 10.4965 11.5012C10.4965 10.9492 10.049 10.5016 9.4969 10.5016C8.94482 10.5016 8.49727 10.9492 8.49727 11.5012C8.49727 12.0533 8.94482 12.5009 9.4969 12.5009Z" fill="#252525"/>
<path d="M8.26736 1.00515C7.32599 0.968809 6.38697 1.12293 5.50661 1.45828C4.62625 1.79363 3.82266 2.30329 3.14404 2.95671C2.46541 3.61014 1.92572 4.39386 1.55731 5.26091C1.1889 6.12796 0.999362 7.06047 1.00006 8.00254C1.00004 8.37307 1.08548 8.7386 1.24974 9.07072C1.41401 9.40285 1.65266 9.6926 1.94716 9.91746C2.24165 10.1423 2.58404 10.2962 2.9477 10.3672C3.31137 10.4382 3.6865 10.4243 4.04393 10.3267L4.60372 10.1717C4.82641 10.1109 5.06013 10.1024 5.28666 10.1467C5.5132 10.1911 5.72644 10.2872 5.90976 10.4274C6.09309 10.5677 6.24155 10.7484 6.34359 10.9555C6.44562 11.1625 6.49847 11.3904 6.49802 11.6212V13.5005C6.49802 13.8982 6.65599 14.2796 6.93719 14.5608C7.21839 14.842 7.59978 14.9999 7.99746 14.9999C8.93953 15.0006 9.87204 14.8111 10.7391 14.4427C11.6061 14.0743 12.3899 13.5346 13.0433 12.856C13.6967 12.1773 14.2064 11.3738 14.5417 10.4934C14.8771 9.61303 15.0312 8.67401 14.9949 7.73264C14.9223 5.97163 14.1903 4.30228 12.944 3.05601C11.6977 1.80973 10.0284 1.07767 8.26736 1.00515ZM12.3208 12.156C11.7628 12.7403 11.0918 13.2051 10.3485 13.5221C9.60535 13.8392 8.80546 14.0019 7.99746 14.0003C7.8649 14.0003 7.73777 13.9477 7.64404 13.8539C7.5503 13.7602 7.49764 13.6331 7.49764 13.5005V11.6212C7.49764 10.9584 7.23435 10.3228 6.76568 9.85408C6.29702 9.38542 5.66137 9.12212 4.99857 9.12212C4.77398 9.12252 4.55044 9.15278 4.33382 9.21209L3.77403 9.36703C3.56495 9.42307 3.34577 9.43019 3.13349 9.38786C2.92121 9.34552 2.72153 9.25486 2.54994 9.1229C2.37835 8.99095 2.23946 8.82125 2.14404 8.62696C2.04861 8.43266 1.99922 8.219 1.99969 8.00254C1.99907 7.19474 2.16164 6.39514 2.47764 5.65171C2.79364 4.90828 3.25655 4.23634 3.83862 3.67622C4.42069 3.11609 5.1099 2.67931 5.86492 2.39209C6.61993 2.10488 7.42519 1.97314 8.23237 2.00477C9.73541 2.08306 11.1562 2.71534 12.2204 3.77959C13.2847 4.84384 13.9169 6.26459 13.9952 7.76763C14.0296 8.57531 13.8989 9.38152 13.611 10.1369C13.3231 10.8923 12.8841 11.5811 12.3208 12.161V12.156Z" fill="#252525"/>
</svg>
