<svg width="16" height="16" viewBox="0 0 16 16" fill="none" xmlns="http://www.w3.org/2000/svg">
<path d="M15 15H14V12.5C13.9992 11.8372 13.7356 11.2017 13.2669 10.7331C12.7983 10.2644 12.1628 10.0007 11.5 9.99998V8.99998C12.4279 9.00102 13.3176 9.3701 13.9737 10.0263C14.6299 10.6824 14.999 11.572 15 12.5V15Z" fill="#252525"/>
<path d="M11 15H10V12.5C9.99922 11.8372 9.73558 11.2018 9.2669 10.7331C8.79823 10.2644 8.1628 10.0008 7.5 9.99998H4.5C3.8372 10.0008 3.20177 10.2644 2.7331 10.7331C2.26442 11.2018 2.00078 11.8372 2 12.5V15H1V12.5C1.00109 11.5721 1.37018 10.6825 2.02632 10.0263C2.68247 9.37017 3.57208 9.00107 4.5 8.99998H7.5C8.42792 9.00107 9.31753 9.37017 9.97368 10.0263C10.6298 10.6825 10.9989 11.5721 11 12.5V15Z" fill="#252525"/>
<path d="M10 0.999985V1.99998C10.663 1.99998 11.2989 2.26338 11.7678 2.73222C12.2366 3.20106 12.5 3.83694 12.5 4.49998C12.5 5.16303 12.2366 5.79891 11.7678 6.26775C11.2989 6.73659 10.663 6.99998 10 6.99998V7.99998C10.9283 7.99998 11.8185 7.63124 12.4749 6.97486C13.1313 6.31848 13.5 5.42824 13.5 4.49998C13.5 3.57173 13.1313 2.68149 12.4749 2.02511C11.8185 1.36873 10.9283 0.999985 10 0.999985Z" fill="#252525"/>
<path d="M6 1.99998C6.49445 1.99998 6.9778 2.14661 7.38893 2.42131C7.80005 2.69601 8.12048 3.08646 8.3097 3.54328C8.49892 4.00009 8.54843 4.50276 8.45196 4.98771C8.3555 5.47266 8.1174 5.91812 7.76777 6.26775C7.41814 6.61738 6.97268 6.85548 6.48773 6.95195C6.00277 7.04841 5.50011 6.9989 5.04329 6.80968C4.58648 6.62046 4.19603 6.30003 3.92133 5.88891C3.64662 5.47779 3.5 4.99444 3.5 4.49998C3.5 3.83694 3.76339 3.20106 4.23223 2.73222C4.70107 2.26338 5.33696 1.99998 6 1.99998ZM6 0.999985C5.30777 0.999985 4.63108 1.20526 4.0555 1.58984C3.47993 1.97443 3.03133 2.52105 2.76642 3.16059C2.50151 3.80013 2.4322 4.50387 2.56725 5.1828C2.7023 5.86173 3.03564 6.48537 3.52513 6.97486C4.01461 7.46434 4.63825 7.79768 5.31718 7.93273C5.99612 8.06778 6.69985 7.99847 7.33939 7.73356C7.97893 7.46866 8.52556 7.02005 8.91014 6.44448C9.29473 5.86891 9.5 5.19222 9.5 4.49998C9.5 3.57173 9.13125 2.68149 8.47487 2.02511C7.8185 1.36873 6.92826 0.999985 6 0.999985Z" fill="#252525"/>
</svg>
