<svg width="16" height="16" viewBox="0 0 16 16" fill="none" xmlns="http://www.w3.org/2000/svg">
<path d="M5.56585 14.9576C5.46361 14.9144 5.37865 14.8384 5.32438 14.7415C5.2701 14.6447 5.2496 14.5325 5.2661 14.4227L6.17532 8.49878H3.7624C3.6859 8.50084 3.60995 8.48529 3.54041 8.45332C3.47088 8.42136 3.40961 8.37383 3.36133 8.31441C3.31306 8.255 3.27907 8.18528 3.26199 8.11063C3.24491 8.03599 3.2452 7.95842 3.26283 7.8839L4.76154 1.38511C4.78791 1.27326 4.85198 1.17393 4.94297 1.10382C5.03396 1.03371 5.14631 0.997108 5.26111 1.00018H10.2568C10.3314 0.999925 10.4052 1.01641 10.4726 1.04842C10.54 1.08042 10.5995 1.12714 10.6465 1.18514C10.6942 1.2438 10.7279 1.31251 10.7452 1.38612C10.7625 1.45972 10.7629 1.53629 10.7464 1.61007L9.88213 5.49934H12.2551C12.3487 5.49916 12.4405 5.5253 12.52 5.5748C12.5995 5.6243 12.6635 5.69515 12.7047 5.77929C12.7405 5.86004 12.7543 5.94885 12.7446 6.03666C12.735 6.12448 12.7022 6.20816 12.6498 6.2792L6.15534 14.7776C6.11145 14.8427 6.05284 14.8966 5.98427 14.9348C5.9157 14.973 5.8391 14.9945 5.76068 14.9976C5.69383 14.9963 5.62778 14.9828 5.56585 14.9576ZM8.63321 6.49916L9.63235 1.99999H5.66076L4.39185 7.49897H7.34432L6.55 12.638L11.256 6.49916H8.63321Z" fill="#252525"/>
</svg>
