<svg width="16" height="16" viewBox="0 0 16 16" fill="none" xmlns="http://www.w3.org/2000/svg">
<path d="M12.0039 7H11.0039V4C11.0039 3.20435 10.6878 2.44129 10.1252 1.87868C9.56262 1.31607 8.79956 1 8.00391 1C7.20826 1 6.4452 1.31607 5.88259 1.87868C5.31998 2.44129 5.00391 3.20435 5.00391 4V7H4.00391C3.73869 7 3.48434 7.10536 3.2968 7.29289C3.10926 7.48043 3.00391 7.73478 3.00391 8V14C3.00391 14.2652 3.10926 14.5196 3.2968 14.7071C3.48434 14.8946 3.73869 15 4.00391 15H12.0039C12.2691 15 12.5235 14.8946 12.711 14.7071C12.8985 14.5196 13.0039 14.2652 13.0039 14V8C13.0039 7.73478 12.8985 7.48043 12.711 7.29289C12.5235 7.10536 12.2691 7 12.0039 7ZM6.00391 4C6.00391 3.46957 6.21462 2.96086 6.58969 2.58579C6.96477 2.21071 7.47347 2 8.00391 2C8.53434 2 9.04305 2.21071 9.41812 2.58579C9.79319 2.96086 10.0039 3.46957 10.0039 4V7H6.00391V4ZM12.0039 14H4.00391V8H12.0039V14Z" fill="#252525"/>
</svg>
